<svg id="Слой_1" data-name="Слой 1" xmlns="http://www.w3.org/2000/svg" xmlns:xlink="http://www.w3.org/1999/xlink"
     viewBox="0 0 173 103">
    <defs>
        <style>.cls-1{fill:none;}.cls-2{clip-path:url(#clip-path);}.cls-3{fill:#1b194c;}.cls-4{fill:#ee3865;}</style>
        <clipPath id="clip-path" transform="translate(-12.82 -14)">
            <rect class="cls-1" x="12.82" y="93" width="173" height="24"/>
        </clipPath>
    </defs>
    <title>kenner_pim_logo</title>
    <g class="cls-2">
        <path class="cls-3"
              d="M12.82,116.75V93h6.36v23.75Zm16,0L18,104.58,28.58,93H36L23.67,106.08l.51-3.16,12.25,13.83Z"
              transform="translate(-12.82 -14)"/>
        <path class="cls-3"
              d="M51.85,115a10.23,10.23,0,0,1-3.13,1.5,12.26,12.26,0,0,1-3.65.5,11.45,11.45,0,0,1-5.13-1.08,7.49,7.49,0,0,1-3.3-3,9.16,9.16,0,0,1-1.15-4.67,9.4,9.4,0,0,1,1.1-4.58,7.81,7.81,0,0,1,3.06-3.13,8.73,8.73,0,0,1,4.49-1.12,8.24,8.24,0,0,1,4.28,1.08,6.83,6.83,0,0,1,2.8,3,10.6,10.6,0,0,1,1,4.63v.79H40.88l.08-2.79h7.5l-1.48,1a4.17,4.17,0,0,0-.68-2.66,2.43,2.43,0,0,0-2-.88,2.54,2.54,0,0,0-2.21,1,5.39,5.39,0,0,0-.76,3.17,5.84,5.84,0,0,0,1,3.75,3.94,3.94,0,0,0,3.14,1.13A8.62,8.62,0,0,0,50.33,111Z"
              transform="translate(-12.82 -14)"/>
        <path class="cls-3"
              d="M55,116.75V104.67c0-.79,0-1.63,0-2.42s-.13-1.62-.22-2.42H60.5l.42,3.21-.42-.16a7,7,0,0,1,2.5-2.59,6.69,6.69,0,0,1,3.56-.91c4,0,6.06,2.41,6.06,7.29v10.08H66.47v-9.83a3.54,3.54,0,0,0-.55-2.25,2,2,0,0,0-1.69-.67,2.88,2.88,0,0,0-2.25.92,3.49,3.49,0,0,0-.85,2.41v9.42Z"
              transform="translate(-12.82 -14)"/>
        <path class="cls-3"
              d="M76.14,116.75V104.67c0-.79,0-1.63,0-2.42s-.12-1.62-.21-2.42h5.77l.42,3.21-.42-.16a7,7,0,0,1,2.5-2.59,6.67,6.67,0,0,1,3.56-.91c4,0,6.06,2.41,6.06,7.29v10.08H87.62v-9.83a3.54,3.54,0,0,0-.55-2.25,2,2,0,0,0-1.69-.67,2.88,2.88,0,0,0-2.25.92,3.49,3.49,0,0,0-.85,2.41v9.42Z"
              transform="translate(-12.82 -14)"/>
        <path class="cls-3"
              d="M112.92,115a10,10,0,0,1-3.13,1.5,12.26,12.26,0,0,1-3.65.5,11.45,11.45,0,0,1-5.13-1.08,7.49,7.49,0,0,1-3.3-3,9.26,9.26,0,0,1-1.15-4.67,9.41,9.41,0,0,1,1.11-4.58,7.72,7.72,0,0,1,3-3.13,8.73,8.73,0,0,1,4.49-1.12,8.24,8.24,0,0,1,4.28,1.08,6.83,6.83,0,0,1,2.8,3,10.6,10.6,0,0,1,1,4.63v.79H102l.08-2.79h7.5l-1.48,1a4.17,4.17,0,0,0-.68-2.66,2.42,2.42,0,0,0-2-.88,2.51,2.51,0,0,0-2.2,1,5.39,5.39,0,0,0-.77,3.17,5.77,5.77,0,0,0,1,3.75,3.9,3.9,0,0,0,3.13,1.13,8.62,8.62,0,0,0,4.92-1.59Z"
              transform="translate(-12.82 -14)"/>
        <path class="cls-3"
              d="M116.06,116.75V104.67c0-.79,0-1.63,0-2.42s-.13-1.62-.22-2.42h5.77l.59,4.59-.59-.34a4.93,4.93,0,0,1,1.86-3.45A5.55,5.55,0,0,1,127,99.46a8.17,8.17,0,0,1,1.1.08c.3.09.6.17.81.25v5.5a6.52,6.52,0,0,0-2.8-.66A5.33,5.33,0,0,0,124,105a3,3,0,0,0-1.31,1.17,4.18,4.18,0,0,0-.47,2.08v8.5Z"
              transform="translate(-12.82 -14)"/>
        <path class="cls-3"
              d="M131.74,116.75V93h9.79a8.66,8.66,0,0,1,5.85,1.79,6.71,6.71,0,0,1,0,9.79,8.67,8.67,0,0,1-5.85,1.84h-6.7v10.33Zm3.09-12.83h6.36a6,6,0,0,0,3.9-1.09,4.32,4.32,0,0,0,0-6.2,5.67,5.67,0,0,0-3.86-1.13h-6.35v8.42Z"
              transform="translate(-12.82 -14)"/>
        <path class="cls-3" d="M153.91,116.75V93H157v23.75Z" transform="translate(-12.82 -14)"/>
        <path class="cls-3"
              d="M162.85,116.75V93h2.58l9.62,21.58H173.7L183.28,93h2.54v23.75H183V97.21l1.06.12-8.6,19.42h-2.17l-8.73-19.42,1.15-.12,0,19.54Z"
              transform="translate(-12.82 -14)"/>
    </g>
    <path class="cls-3" d="M12.82,14V42.55L34.05,14Zm0,65.32H34.5L12.82,46.43Z" transform="translate(-12.82 -14)"/>
    <path class="cls-4"
          d="M172.1,14.27,152.77,58.63,133.34,14.27H120v65h14.82V49.87l12.37,29.36H158l12.37-29.72.09,29.72h14.91v-65ZM94.49,79.32h17.17v-65H94.49ZM83.83,19.69q-6-5.42-17.35-5.42h-15L35.59,35.05l-6.87,9,24,35.14V53.93H66.58c7.4,0,13.19-1.8,17.25-5.42S90,40.11,90,34.06,87.9,23.31,83.83,19.69Zm-12.2,19.7c-1.53,1.17-4,1.8-7.31,1.8H52.75V27.28H64.23c3.43,0,5.87.63,7.4,1.81a6.1,6.1,0,0,1,2.26,5.24A6,6,0,0,1,71.63,39.39Z"
          transform="translate(-12.82 -14)"/>
</svg>